<?xml version="1.0" encoding="UTF-8" standalone="no"?>
<svg
   xmlns:dc="http://purl.org/dc/elements/1.1/"
   xmlns:cc="http://creativecommons.org/ns#"
   xmlns:rdf="http://www.w3.org/1999/02/22-rdf-syntax-ns#"
   xmlns:svg="http://www.w3.org/2000/svg"
   xmlns="http://www.w3.org/2000/svg"
   xmlns:sodipodi="http://sodipodi.sourceforge.net/DTD/sodipodi-0.dtd"
   xmlns:inkscape="http://www.inkscape.org/namespaces/inkscape"
   width="16"
   height="16"
   version="1.1"
   viewBox="0 0 16 16"
   id="svg4493"
   sodipodi:docname="icon_trackball_camera.svg"
   inkscape:export-filename="/home/goutte/code/cyx-godot/addons/TrackballCamera/icon_trackball_camera.png"
   inkscape:export-xdpi="96"
   inkscape:export-ydpi="96"
   inkscape:version="0.92.1 r15371">
  <metadata
     id="metadata4499">
    <rdf:RDF>
      <cc:Work
         rdf:about="">
        <dc:format>image/svg+xml</dc:format>
        <dc:type
           rdf:resource="http://purl.org/dc/dcmitype/StillImage" />
      </cc:Work>
    </rdf:RDF>
  </metadata>
  <defs
     id="defs4497" />
  <sodipodi:namedview
     pagecolor="#ffffff"
     bordercolor="#666666"
     borderopacity="1"
     objecttolerance="10"
     gridtolerance="10"
     guidetolerance="10"
     inkscape:pageopacity="0"
     inkscape:pageshadow="2"
     inkscape:window-width="1920"
     inkscape:window-height="1107"
     id="namedview4495"
     showgrid="false"
     inkscape:zoom="29.5"
     inkscape:cx="13.200433"
     inkscape:cy="6.6601584"
     inkscape:window-x="0"
     inkscape:window-y="0"
     inkscape:window-maximized="1"
     inkscape:current-layer="svg4493" />
  <g
     transform="translate(0 -1036.4)"
     id="g4491">
    <path
       d="m9 1038.4a3 3 0 0 0 -2.9883 2.7774 3 3 0 0 0 -2.0117 -0.7774 3 3 0 0 0 -3 3 3 3 0 0 0 2 2.8243v2.1757c0 0.554 0.44599 1 1 1h6c0.55401 0 1-0.446 1-1v-1l3 2v-6l-3 2v-1.7695a3 3 0 0 0 1 -2.2305 3 3 0 0 0 -3 -3z"
       id="path4489"
       fill="#fc9c9c" />
  </g>
  <g
     id="g5308"
     transform="matrix(0.00720063,0,0,0.00720063,5.1086782,7.4877507)"
     style="fill:#ffffff;fill-opacity:1;stroke:none;stroke-opacity:1"
     inkscape:export-xdpi="418.2641"
     inkscape:export-ydpi="418.2641">
    <g
       id="g5251"
       style="fill:#ffffff;fill-opacity:1;stroke:none;stroke-opacity:1">
      <g
         id="language"
         style="fill:#ffffff;fill-opacity:1;stroke:none;stroke-opacity:1">
        <path
           id="path5248"
           d="M 255,0 C 114.75,0 0,114.75 0,255 0,395.25 114.75,510 255,510 395.25,510 510,395.25 510,255 510,114.75 395.25,0 255,0 Z M 430.95,153 H 357 C 349.35,119.85 336.6,91.8 321.3,61.2 367.2,79.05 408,109.65 430.95,153 Z M 255,51 c 20.4,30.6 38.25,63.75 48.45,102 h -96.9 C 216.75,117.3 234.6,81.6 255,51 Z M 58.65,306 C 53.55,290.7 51,272.85 51,255 c 0,-17.85 2.55,-35.7 7.65,-51 h 86.7 c -2.55,17.85 -2.55,33.15 -2.55,51 0,17.85 2.55,33.15 2.55,51 z m 20.4,51 H 153 c 7.65,33.15 20.4,61.2 35.7,91.8 C 142.8,430.95 102,400.35 79.05,357 Z M 153,153 H 79.05 C 104.55,109.65 142.8,79.05 188.7,61.2 173.4,91.8 160.65,119.85 153,153 Z M 255,459 C 234.6,428.4 216.75,395.25 206.55,357 h 96.9 C 293.25,392.7 275.4,428.4 255,459 Z m 58.65,-153 h -117.3 c -2.55,-17.85 -5.1,-33.15 -5.1,-51 0,-17.85 2.55,-33.15 5.1,-51 H 316.2 c 2.55,17.85 5.1,33.15 5.1,51 0,17.85 -5.1,33.15 -7.65,51 z m 7.65,142.8 C 336.6,420.75 349.35,390.151 357,357 h 73.95 C 408,400.35 367.2,430.95 321.3,448.8 Z M 367.2,306 c 2.55,-17.85 2.55,-33.15 2.55,-51 0,-17.85 -2.55,-33.15 -2.55,-51 h 86.7 c 5.1,15.3 7.649,33.15 7.649,51 0,17.85 -2.55,35.7 -7.649,51 z"
           inkscape:connector-curvature="0"
           style="fill:#ffffff;fill-opacity:1;stroke:none;stroke-opacity:1" />
      </g>
    </g>
    <g
       id="g5253"
       style="fill:#ffffff;fill-opacity:1;stroke:none;stroke-opacity:1" />
    <g
       id="g5255"
       style="fill:#ffffff;fill-opacity:1;stroke:none;stroke-opacity:1" />
    <g
       id="g5257"
       style="fill:#ffffff;fill-opacity:1;stroke:none;stroke-opacity:1" />
    <g
       id="g5259"
       style="fill:#ffffff;fill-opacity:1;stroke:none;stroke-opacity:1" />
    <g
       id="g5261"
       style="fill:#ffffff;fill-opacity:1;stroke:none;stroke-opacity:1" />
    <g
       id="g5263"
       style="fill:#ffffff;fill-opacity:1;stroke:none;stroke-opacity:1" />
    <g
       id="g5265"
       style="fill:#ffffff;fill-opacity:1;stroke:none;stroke-opacity:1" />
    <g
       id="g5267"
       style="fill:#ffffff;fill-opacity:1;stroke:none;stroke-opacity:1" />
    <g
       id="g5269"
       style="fill:#ffffff;fill-opacity:1;stroke:none;stroke-opacity:1" />
    <g
       id="g5271"
       style="fill:#ffffff;fill-opacity:1;stroke:none;stroke-opacity:1" />
    <g
       id="g5273"
       style="fill:#ffffff;fill-opacity:1;stroke:none;stroke-opacity:1" />
    <g
       id="g5275"
       style="fill:#ffffff;fill-opacity:1;stroke:none;stroke-opacity:1" />
    <g
       id="g5277"
       style="fill:#ffffff;fill-opacity:1;stroke:none;stroke-opacity:1" />
    <g
       id="g5279"
       style="fill:#ffffff;fill-opacity:1;stroke:none;stroke-opacity:1" />
    <g
       id="g5281"
       style="fill:#ffffff;fill-opacity:1;stroke:none;stroke-opacity:1" />
  </g>
</svg>
